HIERARCHY
ROOT Hips
{
 OFFSET 0.000000 0.000000 0.000000
 CHANNELS 6 Xposition Yposition Zposition Yrotation Xrotation Zrotation
 JOINT Chest
 {
  OFFSET 0.000000 9.585900 0.002600
  CHANNELS 3 Yrotation Xrotation Zrotation
  JOINT Chest2
  {
   OFFSET 0.000000 9.601200 -0.005300
   CHANNELS 3 Yrotation Xrotation Zrotation
   JOINT Chest3
   {
    OFFSET 0.000000 9.561800 0.000000
    CHANNELS 3 Yrotation Xrotation Zrotation
    JOINT Chest4
    {
     OFFSET 0.000000 9.552100 0.000000
     CHANNELS 3 Yrotation Xrotation Zrotation
     JOINT Neck
     {
      OFFSET 0.000000 14.453000 0.000000
      CHANNELS 3 Yrotation Xrotation Zrotation
      JOINT Head
      {
       OFFSET 0.000000 8.936500 -0.011300
       CHANNELS 3 Yrotation Xrotation Zrotation
       End Site
       {
        OFFSET 0.000000 17.073600 -0.006000
       }
      }
     }
     JOINT RightCollar
     {
      OFFSET -2.921100 9.558500 0.000000
      CHANNELS 3 Yrotation Xrotation Zrotation
      JOINT RightShoulder
      {
       OFFSET -13.519700 0.000000 0.000000
       CHANNELS 3 Yrotation Xrotation Zrotation
       JOINT RightElbow
       {
        OFFSET 0.000000 -29.696600 0.000000
        CHANNELS 3 Yrotation Xrotation Zrotation
        JOINT RightWrist
        {
         OFFSET 0.000000 -24.004700 0.000000
         CHANNELS 3 Yrotation Xrotation Zrotation
         End Site
         {
          OFFSET 0.000000 -17.728500 0.000000
         }
        }
       }
      }
     }
     JOINT LeftCollar
     {
      OFFSET 2.921100 9.558500 0.000000
      CHANNELS 3 Yrotation Xrotation Zrotation
      JOINT LeftShoulder
      {
       OFFSET 13.519700 0.000000 0.000000
       CHANNELS 3 Yrotation Xrotation Zrotation
       JOINT LeftElbow
       {
        OFFSET 0.000000 -29.696600 0.000000
        CHANNELS 3 Yrotation Xrotation Zrotation
        JOINT LeftWrist
        {
         OFFSET 0.000000 -24.004700 0.000000
         CHANNELS 3 Yrotation Xrotation Zrotation
         End Site
         {
          OFFSET 0.000000 -17.728500 0.000000
         }
        }
       }
      }
     }
    }
   }
  }
 }
 JOINT RightHip
 {
  OFFSET -7.771700 -0.012900 -0.001300
  CHANNELS 3 Yrotation Xrotation Zrotation
  JOINT RightKnee
  {
   OFFSET 0.000000 -40.869800 0.001200
   CHANNELS 3 Yrotation Xrotation Zrotation
   JOINT RightAnkle
   {
    OFFSET 0.000000 -39.717900 0.002100
    CHANNELS 3 Yrotation Xrotation Zrotation
    JOINT RightToe
    {
     OFFSET 0.000000 -4.965400 11.033500
     CHANNELS 3 Yrotation Xrotation Zrotation
     End Site
     {
      OFFSET 0.000000 -1.423100 5.872300
     }
    }
   }
  }
 }
 JOINT LeftHip
 {
  OFFSET 7.771700 -0.012900 -0.001300
  CHANNELS 3 Yrotation Xrotation Zrotation
  JOINT LeftKnee
  {
   OFFSET 0.000000 -40.869800 0.001200
   CHANNELS 3 Yrotation Xrotation Zrotation
   JOINT LeftAnkle
   {
    OFFSET 0.000000 -39.717900 0.002100
    CHANNELS 3 Yrotation Xrotation Zrotation
    JOINT LeftToe
    {
     OFFSET 0.000000 -4.965400 11.033500
     CHANNELS 3 Yrotation Xrotation Zrotation
     End Site
     {
      OFFSET 0.000000 -1.423100 5.872300
     }
    }
   }
  }
 }
}
MOTION
Frames: 14
Frame Time: 0.008333
0.000000 85.388000 0.000000 0.000000 -5.767877 0.000000 0.000000 11.653817 0.000000 0.000000 -5.885947 0.000000 0.000000 -0.000000 0.000000 0.000000 -0.000000 0.000000 0.000000 12.528835 0.000000 0.000000 0.711642 0.000000 0.000000 -0.000000 0.000000 0.000000 0.000000 -90.000000 0.000000 -2.309062 0.000000 0.000000 2.309062 0.000000 0.000000 -0.000000 0.000000 0.000000 -0.000000 90.000000 0.000000 -2.309062 0.000000 0.000000 2.309062 0.000000 0.000000 8.520406 0.000000 0.000000 1.905762 0.000000 -0.000000 -4.658285 0.000000 0.000000 -0.000000 0.000000 0.000000 8.520406 0.000000 0.000000 1.905762 0.000000 -0.000000 -4.658285 0.000000 0.000000 -0.000000 0.000000
-215.553649 57.983137 26.004019 174.522937 -50.764947 -3.836117 4.864719 23.023669 3.649453 2.483103 13.207825 1.860821 3.195696 16.503364 2.435934 2.482348 13.199925 1.859844 -5.116300 15.726874 5.323472 -11.408223 -5.823876 11.720548 2.995433 3.660838 0.239404 0.373155 -14.466852 -11.235089 -75.662834 -62.128466 118.770994 9.960118 9.633547 -17.216820 -10.789207 1.424659 -0.100698 3.819539 -11.838038 12.145235 61.766701 -57.979158 -110.486429 -2.378068 4.023734 2.468465 3.401254 -21.326770 -1.382778 -36.402441 73.337357 -38.901207 5.348679 -12.594375 10.432341 0.000328 -0.169053 0.001915 -5.465777 -20.261283 9.914246 54.931571 78.668496 53.575220 5.015541 -15.236854 -17.078929 0.063225 0.094304 0.025897
-215.554972 57.981711 25.999304 174.532359 -50.756667 -3.838851 4.858429 23.016315 3.642911 2.483081 13.202551 1.861217 3.188346 16.499292 2.438179 2.491917 13.190677 1.852079 -5.164569 15.758757 5.368882 -11.508956 -5.751374 11.816954 3.023472 3.608889 0.236845 0.571332 -14.431458 -11.438050 -76.974438 -62.813089 119.712184 10.468109 10.140665 -17.137893 -10.782180 1.411255 -0.075320 3.788629 -11.720245 12.213409 61.940804 -58.179721 -110.548628 -2.338467 4.000061 2.655356 3.403709 -21.334180 -1.393823 -36.436274 73.344031 -38.929407 5.356184 -12.605789 10.433811 0.001821 -0.166675 0.001758 -5.462772 -20.272309 9.908417 54.936193 78.674036 53.587391 5.016813 -15.240906 -17.078925 0.063732 0.095085 0.026360
-215.556352 57.980525 25.993429 174.538892 -50.750793 -3.838226 4.853300 23.011386 3.636281 2.483451 13.200824 1.861416 3.195290 16.486879 2.435720 2.490211 13.196715 1.853327 -5.198340 15.783842 5.397041 -11.592265 -5.687796 11.899726 3.037013 3.558476 0.224469 0.770754 -14.407156 -11.611487 -78.335401 -63.510758 120.672805 10.862418 10.567864 -17.105443 -10.781260 1.395881 -0.064248 3.755733 -11.600473 12.297344 62.126580 -58.355571 -110.611942 -2.255317 3.918782 2.884281 3.407854 -21.340615 -1.403200 -36.494871 73.347639 -38.982140 5.357951 -12.612639 10.434626 0.000056 -0.167451 0.002478 -5.450409 -20.281609 9.897944 54.933417 78.678466 53.598673 5.020919 -15.243235 -17.079131 0.063819 0.095262 0.026606
-215.557890 57.978465 25.987501 174.546048 -50.738575 -3.836348 4.854768 23.005353 3.625626 2.487382 13.195861 1.860387 3.199987 16.480552 2.434496 2.487381 13.195751 1.860423 -5.214015 15.798599 5.413358 -11.660135 -5.623090 11.965616 3.035111 3.542985 0.224487 0.968702 -14.416498 -11.771404 -79.616064 -64.157638 121.566177 11.166891 10.909927 -17.077261 -10.776764 1.378974 -0.051879 3.721420 -11.475413 12.377084 62.300160 -58.492918 -110.692966 -2.147373 3.805728 3.131876 3.412727 -21.354719 -1.412442 -36.549229 73.356215 -39.032993 5.348844 -12.621322 10.437853 -0.002507 -0.168099 0.002902 -5.439297 -20.297855 9.885537 54.955194 78.680699 53.633798 5.020706 -15.248838 -17.079566 0.062462 0.096920 0.026556
-215.557769 57.973117 25.984188 174.549276 -50.699820 -3.841565 4.881653 22.994075 3.629275 2.499254 13.186076 1.855074 3.192968 16.460509 2.444290 2.514692 13.195733 1.832481 -5.249244 15.809252 5.474852 -11.697775 -5.566072 12.004277 2.995749 3.520238 0.268956 1.142674 -14.423443 -11.900856 -80.725500 -64.728922 122.349539 11.379030 11.164302 -17.051482 -10.799886 1.359641 0.007198 3.688086 -11.348468 12.447171 62.460732 -58.569148 -110.793023 -2.034915 3.710964 3.370159 3.411996 -21.395475 -1.412510 -36.571924 73.360524 -39.053430 5.347420 -12.630438 10.438950 0.000172 -0.161497 0.002860 -5.427626 -20.345621 9.882552 55.007163 78.686584 53.710479 5.025504 -15.257971 -17.087191 0.065177 0.099624 0.027542
-215.559802 57.971340 25.977328 174.556172 -50.688540 -3.833142 4.885717 23.002836 3.612893 2.506803 13.180501 1.851981 3.224041 16.461330 2.424423 2.506761 13.180474 1.851947 -5.260576 15.854302 5.484789 -11.713326 -5.543704 12.051520 2.967212 3.479627 0.239600 1.215002 -14.400089 -11.900117 -81.584097 -65.224067 123.030534 11.529154 11.368734 -17.031388 -10.800030 1.345506 0.041948 3.661542 -11.236412 12.505771 62.592141 -58.577050 -110.885686 -1.931036 3.658960 3.575331 3.417348 -21.407303 -1.426234 -36.592001 73.382703 -39.084497 5.338570 -12.650273 10.451936 -0.007630 -0.160582 0.000696 -5.420135 -20.360059 9.862320 55.047021 78.690150 53.762487 5.026067 -15.266008 -17.091759 0.065594 0.101638 0.028088
-215.559562 57.967666 25.972517 174.547603 -50.660911 -3.825645 4.903961 22.993949 3.609218 2.514219 13.174453 1.848149 3.233189 16.453686 2.419827 2.514211 13.174400 1.848180 -5.258880 15.878512 5.498391 -11.727757 -5.532624 12.083261 2.942780 3.462269 0.240056 1.362808 -14.388702 -11.968789 -82.290183 -65.528647 123.525598 11.666680 11.568815 -16.986928 -10.798555 1.339851 0.081069 3.644610 -11.135744 12.548576 62.678544 -58.538261 -110.958117 -1.837308 3.646566 3.756512 3.446405 -21.439657 -1.431081 -36.645730 73.389713 -39.122804 5.332961 -12.655054 10.450452 -0.002515 -0.159873 0.006275 -5.413896 -20.389554 9.861197 55.056350 78.700894 53.777170 5.040829 -15.274077 -17.095080 0.053761 0.107465 0.027819
-215.560213 57.963562 25.968160 174.545330 -50.627955 -3.815974 4.912373 22.979441 3.598184 2.520375 13.168321 1.843105 3.240813 16.446047 2.413733 2.520378 13.168348 1.843162 -5.245975 15.906985 5.507648 -11.741652 -5.522154 12.115053 2.929149 3.450476 0.243752 1.471608 -14.357841 -12.002253 -82.820838 -65.712588 123.895424 11.804087 11.778391 -16.904680 -10.798909 1.342370 0.120008 3.647596 -11.045556 12.576905 62.725138 -58.480577 -111.012294 -1.752058 3.666253 3.931368 3.459821 -21.474320 -1.438648 -36.676353 73.395536 -39.152987 5.325164 -12.664069 10.449244 -0.002413 -0.156505 0.014401 -5.409630 -20.424538 9.852556 55.048437 78.705595 53.779561 5.034551 -15.277126 -17.098405 0.061548 0.108834 0.028456
-215.561714 57.961824 25.962105 174.544734 -50.611213 -3.799448 4.909937 22.972663 3.579637 2.527575 13.170696 1.836534 3.241178 16.436524 2.414901 2.526865 13.165336 1.827023 -5.222412 15.939076 5.512003 -11.658248 -5.409516 12.088550 2.927667 3.440975 0.247403 1.521974 -14.314026 -11.991832 -83.155044 -65.812171 124.139372 11.935433 11.987520 -16.807604 -10.803662 1.347606 0.152228 3.675351 -10.962582 12.596002 62.750945 -58.428049 -111.052579 -1.669487 3.713088 4.102357 3.477358 -21.492480 -1.448688 -36.704108 73.407321 -39.193954 5.313416 -12.673283 10.466273 -0.008493 -0.156727 0.008472 -5.398876 -20.442602 9.831878 55.041940 78.706430 53.782619 5.034056 -15.277160 -17.100590 0.065296 0.108279 0.028608
-215.559933 57.960136 25.957146 174.535247 -50.591629 -3.793995 4.918398 22.960963 3.579841 2.532556 13.173391 1.831205 3.241946 16.427380 2.412850 2.529783 13.162457 1.814683 -5.206638 15.956132 5.524353 -11.557283 -5.319774 12.039596 2.934288 3.433059 0.247822 1.537037 -14.264050 -11.957962 -83.400033 -65.847446 124.327835 12.033813 12.209926 -16.703560 -10.778600 1.360488 0.185693 3.694528 -10.892242 12.599294 62.773962 -58.393115 -111.092697 -1.586875 3.781540 4.276074 3.494196 -21.514734 -1.440899 -36.751573 73.405516 -39.236929 5.307689 -12.673155 10.463357 -0.002964 -0.157464 0.012122 -5.392229 -20.461596 9.832902 55.035023 78.708623 53.782056 5.042834 -15.277226 -17.101035 0.061487 0.108558 0.024696
-215.559955 57.958930 25.952109 174.530016 -50.573401 -3.778661 4.923026 22.959216 3.568017 2.531237 13.170696 1.826794 3.246947 16.416819 2.403170 2.528046 13.158830 1.821545 -5.189375 15.972049 5.522556 -11.453596 -5.258295 11.991278 2.939090 3.429597 0.247212 1.521840 -14.213633 -11.916727 -83.582349 -65.861602 124.493793 12.077828 12.432411 -16.614319 -10.742483 1.371877 0.207780 3.724095 -10.824124 12.595504 62.810679 -58.376419 -111.152839 -1.505714 3.871101 4.464393 3.505538 -21.533441 -1.450484 -36.763956 73.416411 -39.254956 5.298949 -12.682966 10.456509 -0.007208 -0.155915 0.020472 -5.385637 -20.476983 9.815368 55.062903 78.702363 53.817767 5.047300 -15.286292 -17.107112 0.064562 0.116089 0.022977
-215.561526 57.955206 25.949600 174.529742 -50.533152 -3.756876 4.918784 22.958439 3.546401 2.528074 13.149653 1.819704 3.249378 16.422877 2.384331 2.530633 13.137028 1.834847 -5.116609 16.027133 5.487898 -11.385155 -5.245623 11.986331 2.946437 3.425617 0.246439 1.469766 -14.161474 -11.858932 -83.676966 -65.842953 124.598996 12.110959 12.652085 -16.537538 -10.705157 1.383791 0.228189 3.772713 -10.758302 12.590741 62.857302 -58.375274 -111.229544 -1.427556 3.972664 4.667804 3.516874 -21.573278 -1.471834 -36.779897 73.425525 -39.287179 5.297203 -12.701450 10.475364 -0.023166 -0.148115 0.011768 -5.381438 -20.518823 9.793315 55.058529 78.700532 53.823059 5.043181 -15.289168 -17.113257 0.077048 0.121165 0.027731
-215.558640 57.955218 25.945534 174.527878 -50.518145 -3.757027 4.921733 22.953555 3.548681 2.528325 13.153527 1.816705 3.248565 16.425572 2.378870 2.530122 13.131210 1.824982 -5.051647 16.056577 5.471491 -11.287956 -5.231580 11.948781 2.968596 3.425819 0.237439 1.372944 -14.124317 -11.770685 -83.744120 -65.798925 124.690465 12.137071 12.887579 -16.475038 -10.614293 1.418910 0.266918 3.788641 -10.725574 12.572725 62.889882 -58.390527 -111.290020 -1.350941 4.064583 4.871670 3.530686 -21.586647 -1.459000 -36.841648 73.415404 -39.344920 5.283327 -12.703560 10.477814 -0.016573 -0.146025 0.012458 -5.383851 -20.529045 9.794953 55.038337 78.699460 53.806558 5.051925 -15.291886 -17.115984 0.071259 0.126661 0.025310
